<svg width="375" height="812" viewBox="0 0 375 812" fill="none" xmlns="http://www.w3.org/2000/svg">
<g clip-path="url(#clip0)">
<rect width="375" height="812" fill="#081630"/>
<path d="M106.88 422.32C103.973 422.32 101.68 421.667 100 420.36C98.3467 419.053 97.52 417.28 97.52 415.04C97.52 414.8 97.5467 414.44 97.6 413.96L97.72 413.08C97.7467 412.947 97.8 412.84 97.88 412.76C97.9867 412.653 98.1067 412.6 98.24 412.6H102.68C102.813 412.6 102.92 412.653 103 412.76C103.08 412.84 103.107 412.947 103.08 413.08L103 413.68C102.867 414.747 103.227 415.653 104.08 416.4C104.96 417.12 106.213 417.48 107.84 417.48C109.333 417.48 110.453 417.147 111.2 416.48C111.973 415.813 112.36 415 112.36 414.04C112.36 413.453 112.16 412.96 111.76 412.56C111.387 412.16 110.867 411.813 110.2 411.52C109.56 411.2 108.533 410.76 107.12 410.2C105.573 409.613 104.267 409.04 103.2 408.48C102.133 407.893 101.24 407.12 100.52 406.16C99.8 405.2 99.44 404.013 99.44 402.6C99.44 402.413 99.4667 402.08 99.52 401.6C99.8133 399.173 100.92 397.253 102.84 395.84C104.76 394.4 107.133 393.68 109.96 393.68C111.773 393.68 113.373 394 114.76 394.64C116.173 395.253 117.253 396.133 118 397.28C118.773 398.4 119.16 399.72 119.16 401.24C119.16 401.453 119.133 401.8 119.08 402.28L119 402.88C118.973 403.013 118.907 403.133 118.8 403.24C118.72 403.32 118.613 403.36 118.48 403.36H114C113.867 403.36 113.76 403.32 113.68 403.24C113.6 403.133 113.573 403.013 113.6 402.88L113.64 402.56C113.773 401.44 113.44 400.493 112.64 399.72C111.867 398.92 110.693 398.52 109.12 398.52C107.813 398.52 106.773 398.827 106 399.44C105.227 400.027 104.84 400.84 104.84 401.88C104.84 402.467 105.027 402.96 105.4 403.36C105.773 403.76 106.32 404.133 107.04 404.48C107.787 404.827 108.907 405.293 110.4 405.88C112.053 406.547 113.333 407.12 114.24 407.6C115.173 408.053 116.013 408.747 116.76 409.68C117.507 410.613 117.88 411.787 117.88 413.2C117.88 413.387 117.853 413.72 117.8 414.2C117.48 416.707 116.333 418.693 114.36 420.16C112.413 421.6 109.92 422.32 106.88 422.32ZM142.533 394C142.667 394 142.773 394.053 142.853 394.16C142.933 394.24 142.96 394.347 142.933 394.48L142.453 398.4C142.453 398.533 142.4 398.653 142.293 398.76C142.187 398.84 142.067 398.88 141.933 398.88H135.013C134.907 398.88 134.827 398.947 134.773 399.08L132.013 421.52C131.987 421.653 131.92 421.773 131.813 421.88C131.733 421.96 131.627 422 131.493 422H126.973C126.84 422 126.733 421.96 126.653 421.88C126.573 421.773 126.547 421.653 126.573 421.52L129.293 399.08C129.347 398.947 129.293 398.88 129.133 398.88H122.373C122.24 398.88 122.133 398.84 122.053 398.76C121.973 398.653 121.947 398.533 121.973 398.4L122.453 394.48C122.48 394.347 122.533 394.24 122.613 394.16C122.72 394.053 122.84 394 122.973 394H142.533ZM157.731 422C157.491 422 157.344 421.867 157.291 421.6L156.611 417.68C156.611 417.653 156.597 417.627 156.571 417.6C156.544 417.547 156.504 417.52 156.451 417.52H146.891C146.811 417.52 146.744 417.573 146.691 417.68L145.051 421.6C144.971 421.867 144.797 422 144.531 422H139.571C139.411 422 139.291 421.947 139.211 421.84C139.157 421.733 139.171 421.6 139.251 421.44L150.971 394.4C151.104 394.133 151.291 394 151.531 394H157.611C157.851 394 158.011 394.133 158.091 394.4L163.131 421.44V421.56C163.131 421.693 163.091 421.8 163.011 421.88C162.931 421.96 162.824 422 162.691 422H157.731ZM148.651 412.92C148.624 413.08 148.664 413.16 148.771 413.16H155.611C155.744 413.16 155.811 413.08 155.811 412.92L153.771 401.04C153.744 400.933 153.704 400.893 153.651 400.92C153.597 400.92 153.557 400.96 153.531 401.04L148.651 412.92ZM181.425 422C181.185 422 181.025 421.88 180.945 421.64L177.465 410.56C177.412 410.453 177.332 410.4 177.225 410.4H173.625C173.492 410.4 173.425 410.467 173.425 410.6L172.065 421.52C172.039 421.653 171.972 421.773 171.865 421.88C171.785 421.96 171.679 422 171.545 422H166.985C166.852 422 166.745 421.96 166.665 421.88C166.585 421.773 166.559 421.653 166.585 421.52L169.905 394.48C169.932 394.347 169.985 394.24 170.065 394.16C170.172 394.053 170.292 394 170.425 394H181.545C183.812 394 185.599 394.64 186.905 395.92C188.212 397.2 188.865 398.92 188.865 401.08C188.865 401.347 188.839 401.8 188.785 402.44C188.572 404.253 187.945 405.813 186.905 407.12C185.865 408.4 184.532 409.307 182.905 409.84C182.745 409.893 182.692 409.987 182.745 410.12L186.625 421.44C186.652 421.493 186.665 421.56 186.665 421.64C186.665 421.88 186.519 422 186.225 422H181.425ZM175.025 398.84C174.972 398.84 174.919 398.867 174.865 398.92C174.839 398.947 174.825 398.987 174.825 399.04L173.985 405.88C173.985 406.013 174.039 406.08 174.145 406.08H179.225C180.425 406.08 181.425 405.707 182.225 404.96C183.025 404.187 183.425 403.2 183.425 402C183.425 401.04 183.119 400.28 182.505 399.72C181.919 399.133 181.132 398.84 180.145 398.84H175.025ZM212.455 394C212.589 394 212.695 394.053 212.775 394.16C212.855 394.24 212.882 394.347 212.855 394.48L212.375 398.4C212.375 398.533 212.322 398.653 212.215 398.76C212.109 398.84 211.989 398.88 211.855 398.88H204.935C204.829 398.88 204.749 398.947 204.695 399.08L201.935 421.52C201.909 421.653 201.842 421.773 201.735 421.88C201.655 421.96 201.549 422 201.415 422H196.895C196.762 422 196.655 421.96 196.575 421.88C196.495 421.773 196.469 421.653 196.495 421.52L199.215 399.08C199.269 398.947 199.215 398.88 199.055 398.88H192.295C192.162 398.88 192.055 398.84 191.975 398.76C191.895 398.653 191.869 398.533 191.895 398.4L192.375 394.48C192.402 394.347 192.455 394.24 192.535 394.16C192.642 394.053 192.762 394 192.895 394H212.455ZM221.338 422.32C218.591 422.32 216.404 421.56 214.778 420.04C213.178 418.52 212.378 416.493 212.378 413.96C212.378 413.32 212.404 412.827 212.458 412.48L213.578 403.52C213.818 401.573 214.444 399.853 215.458 398.36C216.471 396.867 217.791 395.72 219.418 394.92C221.044 394.093 222.858 393.68 224.858 393.68C226.671 393.68 228.258 394.027 229.618 394.72C230.978 395.387 232.018 396.32 232.738 397.52C233.484 398.72 233.858 400.08 233.858 401.6C233.858 401.867 233.831 402.24 233.778 402.72L233.738 403C233.711 403.133 233.644 403.253 233.538 403.36C233.458 403.44 233.351 403.48 233.218 403.48H228.658C228.524 403.48 228.418 403.44 228.338 403.36C228.258 403.253 228.231 403.133 228.258 403L228.298 402.88C228.324 402.747 228.338 402.56 228.338 402.32C228.338 401.2 227.978 400.293 227.258 399.6C226.538 398.88 225.538 398.52 224.258 398.52C222.871 398.52 221.698 398.973 220.738 399.88C219.804 400.76 219.244 401.92 219.058 403.36L217.938 412.64C217.911 412.8 217.898 413.04 217.898 413.36C217.898 414.587 218.284 415.587 219.058 416.36C219.858 417.107 220.884 417.48 222.138 417.48C223.498 417.48 224.618 417.12 225.498 416.4C226.378 415.653 226.898 414.627 227.058 413.32L227.298 411.52C227.298 411.387 227.244 411.32 227.138 411.32H222.778C222.644 411.32 222.538 411.28 222.458 411.2C222.378 411.093 222.351 410.973 222.378 410.84L222.818 407.16C222.844 407.027 222.898 406.92 222.978 406.84C223.084 406.733 223.204 406.68 223.338 406.68H232.818C232.951 406.68 233.058 406.733 233.138 406.84C233.218 406.92 233.244 407.027 233.218 407.16L232.578 412.44C232.204 415.507 230.991 417.92 228.938 419.68C226.911 421.44 224.378 422.32 221.338 422.32ZM245.408 422.32C242.661 422.32 240.474 421.573 238.848 420.08C237.248 418.587 236.448 416.587 236.448 414.08C236.448 413.813 236.474 413.36 236.528 412.72L238.768 394.48C238.794 394.347 238.861 394.24 238.968 394.16C239.074 394.053 239.194 394 239.328 394H243.848C243.981 394 244.088 394.053 244.168 394.16C244.248 394.24 244.274 394.347 244.248 394.48L242.008 412.76C241.981 412.947 241.968 413.2 241.968 413.52C241.968 414.72 242.328 415.68 243.048 416.4C243.768 417.12 244.754 417.48 246.008 417.48C247.368 417.48 248.514 417.053 249.448 416.2C250.408 415.32 250.981 414.173 251.168 412.76L253.408 394.48C253.434 394.347 253.488 394.24 253.568 394.16C253.674 394.053 253.794 394 253.928 394H258.488C258.621 394 258.728 394.053 258.808 394.16C258.888 394.24 258.914 394.347 258.888 394.48L256.648 412.72C256.408 414.613 255.781 416.293 254.768 417.76C253.754 419.2 252.434 420.32 250.808 421.12C249.208 421.92 247.408 422.32 245.408 422.32ZM279.021 394.48C279.048 394.347 279.101 394.24 279.181 394.16C279.288 394.053 279.408 394 279.541 394H284.101C284.234 394 284.341 394.053 284.421 394.16C284.501 394.24 284.528 394.347 284.501 394.48L281.181 421.52C281.154 421.653 281.088 421.773 280.981 421.88C280.901 421.96 280.794 422 280.661 422H276.261C276.021 422 275.861 421.893 275.781 421.68L267.821 404.56C267.794 404.48 267.754 404.453 267.701 404.48C267.648 404.48 267.608 404.533 267.581 404.64L265.581 421.52C265.554 421.653 265.488 421.773 265.381 421.88C265.301 421.96 265.194 422 265.061 422H260.501C260.368 422 260.261 421.96 260.181 421.88C260.101 421.773 260.074 421.653 260.101 421.52L263.421 394.48C263.448 394.347 263.501 394.24 263.581 394.16C263.688 394.053 263.808 394 263.941 394H268.341C268.581 394 268.754 394.107 268.861 394.32L276.781 411.36C276.808 411.44 276.848 411.48 276.901 411.48C276.954 411.453 276.994 411.387 277.021 411.28L279.021 394.48Z" fill="white"/>
<circle cx="188" cy="406" r="290" stroke="white" stroke-width="350" stroke-dasharray="2 10"/>
</g>
<defs>
<clipPath id="clip0">
<rect width="375" height="812" fill="white"/>
</clipPath>
</defs>
</svg>
