<svg width="260" height="260" viewBox="0 0 260 260" fill="none" xmlns="http://www.w3.org/2000/svg">
<circle cx="130" cy="130" r="122.5" stroke="white" stroke-width="15" stroke-dasharray="2 10"/>
<path d="M74.0105 149.384C71.4505 149.384 69.2105 148.984 67.2905 148.184C65.3705 147.352 63.8825 146.184 62.8265 144.68C61.8025 143.144 61.2905 141.368 61.2905 139.352V138.296C61.2905 138.136 61.3385 138.008 61.4345 137.912C61.5625 137.784 61.7065 137.72 61.8665 137.72H67.3385C67.4985 137.72 67.6265 137.784 67.7225 137.912C67.8505 138.008 67.9145 138.136 67.9145 138.296V139.016C67.9145 140.296 68.5065 141.384 69.6905 142.28C70.8745 143.144 72.4745 143.576 74.4905 143.576C76.1865 143.576 77.4505 143.224 78.2825 142.52C79.1145 141.784 79.5305 140.888 79.5305 139.832C79.5305 139.064 79.2745 138.424 78.7625 137.912C78.2505 137.368 77.5465 136.904 76.6505 136.52C75.7865 136.104 74.3945 135.544 72.4745 134.84C70.3305 134.104 68.5065 133.352 67.0025 132.584C65.5305 131.816 64.2825 130.776 63.2585 129.464C62.2665 128.12 61.7705 126.472 61.7705 124.52C61.7705 122.6 62.2665 120.92 63.2585 119.48C64.2505 118.04 65.6265 116.936 67.3865 116.168C69.1465 115.4 71.1785 115.016 73.4825 115.016C75.9145 115.016 78.0745 115.448 79.9625 116.312C81.8825 117.176 83.3705 118.392 84.4265 119.96C85.5145 121.496 86.0585 123.288 86.0585 125.336V126.056C86.0585 126.216 85.9945 126.36 85.8665 126.488C85.7705 126.584 85.6425 126.632 85.4825 126.632H79.9625C79.8025 126.632 79.6585 126.584 79.5305 126.488C79.4345 126.36 79.3865 126.216 79.3865 126.056V125.672C79.3865 124.328 78.8265 123.192 77.7065 122.264C76.6185 121.304 75.1145 120.824 73.1945 120.824C71.6905 120.824 70.5065 121.144 69.6425 121.784C68.8105 122.424 68.3945 123.304 68.3945 124.424C68.3945 125.224 68.6345 125.896 69.1145 126.44C69.6265 126.984 70.3625 127.48 71.3225 127.928C72.3145 128.344 73.8345 128.92 75.8825 129.656C78.1545 130.488 79.9305 131.224 81.2105 131.864C82.5225 132.504 83.6905 133.464 84.7145 134.744C85.7705 135.992 86.2985 137.624 86.2985 139.64C86.2985 142.648 85.1945 145.032 82.9865 146.792C80.7785 148.52 77.7865 149.384 74.0105 149.384ZM113.846 115.4C114.006 115.4 114.134 115.464 114.23 115.592C114.358 115.688 114.422 115.816 114.422 115.976V120.68C114.422 120.84 114.358 120.984 114.23 121.112C114.134 121.208 114.006 121.256 113.846 121.256H105.254C105.094 121.256 105.014 121.336 105.014 121.496V148.424C105.014 148.584 104.95 148.728 104.822 148.856C104.726 148.952 104.598 149 104.438 149H98.8224C98.6624 149 98.5184 148.952 98.3904 148.856C98.2944 148.728 98.2464 148.584 98.2464 148.424V121.496C98.2464 121.336 98.1664 121.256 98.0064 121.256H89.6544C89.4944 121.256 89.3504 121.208 89.2224 121.112C89.1264 120.984 89.0784 120.84 89.0784 120.68V115.976C89.0784 115.816 89.1264 115.688 89.2224 115.592C89.3504 115.464 89.4944 115.4 89.6544 115.4H113.846ZM137.007 149C136.687 149 136.479 148.84 136.383 148.52L134.943 143.816C134.879 143.688 134.799 143.624 134.703 143.624H122.895C122.799 143.624 122.719 143.688 122.655 143.816L121.263 148.52C121.167 148.84 120.959 149 120.639 149H114.543C114.351 149 114.207 148.952 114.111 148.856C114.015 148.728 113.999 148.552 114.063 148.328L124.431 115.88C124.527 115.56 124.735 115.4 125.055 115.4H132.591C132.911 115.4 133.119 115.56 133.215 115.88L143.583 148.328C143.615 148.392 143.631 148.472 143.631 148.568C143.631 148.856 143.455 149 143.103 149H137.007ZM124.383 138.104C124.351 138.296 124.415 138.392 124.575 138.392H133.023C133.215 138.392 133.279 138.296 133.215 138.104L128.895 123.848C128.863 123.72 128.815 123.672 128.751 123.704C128.687 123.704 128.639 123.752 128.607 123.848L124.383 138.104ZM166.282 149C165.962 149 165.738 148.856 165.61 148.568L159.61 135.272C159.546 135.144 159.45 135.08 159.322 135.08H154.858C154.698 135.08 154.618 135.16 154.618 135.32V148.424C154.618 148.584 154.554 148.728 154.426 148.856C154.33 148.952 154.202 149 154.042 149H148.426C148.266 149 148.122 148.952 147.994 148.856C147.898 148.728 147.85 148.584 147.85 148.424V115.976C147.85 115.816 147.898 115.688 147.994 115.592C148.122 115.464 148.266 115.4 148.426 115.4H162.154C164.202 115.4 165.994 115.816 167.53 116.648C169.098 117.48 170.298 118.664 171.13 120.2C171.994 121.736 172.426 123.512 172.426 125.528C172.426 127.704 171.882 129.576 170.794 131.144C169.706 132.68 168.186 133.768 166.234 134.408C166.074 134.472 166.026 134.584 166.09 134.744L172.618 148.328C172.682 148.456 172.714 148.552 172.714 148.616C172.714 148.872 172.538 149 172.186 149H166.282ZM154.858 121.208C154.698 121.208 154.618 121.288 154.618 121.448V129.656C154.618 129.816 154.698 129.896 154.858 129.896H161.146C162.49 129.896 163.578 129.496 164.41 128.696C165.274 127.896 165.706 126.856 165.706 125.576C165.706 124.296 165.274 123.256 164.41 122.456C163.578 121.624 162.49 121.208 161.146 121.208H154.858ZM200.471 115.4C200.631 115.4 200.759 115.464 200.855 115.592C200.983 115.688 201.047 115.816 201.047 115.976V120.68C201.047 120.84 200.983 120.984 200.855 121.112C200.759 121.208 200.631 121.256 200.471 121.256H191.879C191.719 121.256 191.639 121.336 191.639 121.496V148.424C191.639 148.584 191.575 148.728 191.447 148.856C191.351 148.952 191.223 149 191.063 149H185.447C185.287 149 185.143 148.952 185.015 148.856C184.919 148.728 184.871 148.584 184.871 148.424V121.496C184.871 121.336 184.791 121.256 184.631 121.256H176.279C176.119 121.256 175.975 121.208 175.847 121.112C175.751 120.984 175.703 120.84 175.703 120.68V115.976C175.703 115.816 175.751 115.688 175.847 115.592C175.975 115.464 176.119 115.4 176.279 115.4H200.471Z" fill="white"/>
</svg>
